<mxfile host="app.diagrams.net" agent="Mozilla/5.0 (Windows NT 10.0; Win64; x64) AppleWebKit/537.36 (KHTML, like Gecko) Chrome/135.0.0.0 Safari/537.36" version="26.2.14">
  <diagram name="Page-1" id="H1CnOWMvKMKlBLmZYGhd">
    <mxGraphModel dx="4913" dy="2033" grid="1" gridSize="10" guides="1" tooltips="1" connect="1" arrows="1" fold="1" page="1" pageScale="1" pageWidth="850" pageHeight="1100" background="light-dark(#FFFFFF,#FFFFFF)" math="0" shadow="0">
      <root>
        <mxCell id="0" />
        <mxCell id="1" parent="0" />
        <mxCell id="-1aYN0H6UYI6XcZAmd7V-1" value="T&amp;nbsp;" style="whiteSpace=wrap;html=1;aspect=fixed;fillColor=none;strokeColor=light-dark(#36393D,#0E0E0E);strokeWidth=10;fillStyle=solid;" vertex="1" parent="1">
          <mxGeometry x="-1220" y="240" width="730" height="730" as="geometry" />
        </mxCell>
        <mxCell id="-1aYN0H6UYI6XcZAmd7V-2" value="&lt;h1&gt;&lt;font face=&quot;Times New Roman&quot; style=&quot;color: light-dark(rgb(0, 0, 0), rgb(0, 0, 0));&quot;&gt;AWS CLOUD&lt;/font&gt;&lt;/h1&gt;" style="rounded=0;whiteSpace=wrap;html=1;fillColor=none;strokeColor=none;" vertex="1" parent="1">
          <mxGeometry x="-1200" y="280" width="180" height="60" as="geometry" />
        </mxCell>
      </root>
    </mxGraphModel>
  </diagram>
</mxfile>
